<?xml version="1.0" standalone="no"?>
<!DOCTYPE svg PUBLIC "-//W3C//DTD SVG 20010904//EN"
 "http://www.w3.org/TR/2001/REC-SVG-20010904/DTD/svg10.dtd">
<svg version="1.0" xmlns="http://www.w3.org/2000/svg"
 width="576.000000pt" height="576.000000pt" viewBox="0 0 576.000000 576.000000"
 preserveAspectRatio="xMidYMid meet">
<metadata>
Created by potrace 1.14, written by Peter Selinger 2001-2017
</metadata>
<g transform="translate(0.000000,576.000000) scale(0.100000,-0.100000)"
fill="#000000" stroke="none">
<path d="M2636 5733 c-4 -4 -42 -11 -84 -15 -85 -8 -161 -21 -337 -57 -133
-28 -116 -23 -403 -125 -115 -41 -347 -162 -471 -245 -63 -42 -122 -81 -132
-87 -11 -6 -27 -18 -37 -27 -10 -10 -22 -17 -27 -17 -4 0 -26 -16 -49 -35 -22
-19 -69 -58 -104 -87 -108 -90 -264 -253 -344 -358 -46 -61 -178 -259 -178
-267 0 -4 -7 -14 -15 -23 -55 -61 -295 -583 -295 -642 0 -9 -4 -19 -9 -22 -5
-3 -11 -23 -14 -43 -3 -21 -10 -56 -17 -78 -17 -60 -31 -125 -36 -175 -3 -25
-9 -54 -14 -65 -15 -33 -42 -342 -42 -475 0 -144 13 -375 22 -395 5 -11 11
-40 14 -65 3 -25 9 -67 15 -95 6 -27 14 -70 19 -95 11 -51 38 -137 52 -162 6
-10 10 -27 10 -39 0 -11 9 -44 21 -72 35 -87 58 -145 80 -199 63 -159 213
-433 297 -542 189 -248 415 -478 605 -616 26 -19 64 -48 85 -63 66 -51 254
-163 397 -238 87 -45 291 -125 380 -149 17 -4 50 -14 75 -23 223 -75 670 -121
963 -98 158 13 279 26 317 34 14 3 52 10 85 17 115 22 328 88 475 147 107 43
381 184 480 248 246 158 481 363 645 563 33 41 78 95 100 122 48 58 176 262
239 381 125 234 238 564 285 834 5 33 16 92 23 130 18 95 17 631 0 735 -57
341 -86 453 -172 670 -12 30 -28 72 -36 93 -58 157 -334 624 -379 641 -8 3
-22 20 -31 38 -25 49 -156 200 -226 260 -33 29 -91 80 -128 113 -86 75 -97 83
-255 190 -134 90 -450 256 -571 299 -293 104 -412 134 -669 167 -98 13 -598
23 -609 12z m278 -569 c24 -24 15 -179 -12 -206 -7 -7 -68 -15 -137 -20 -438
-27 -949 -261 -1273 -581 -265 -261 -470 -593 -560 -909 -31 -108 -66 -281
-77 -382 -5 -46 -13 -66 -34 -86 -38 -38 -90 -46 -146 -21 -65 29 -79 66 -65
172 38 274 128 588 224 778 181 356 489 687 852 916 107 67 325 175 449 222
100 37 275 84 405 107 112 20 137 23 257 24 81 2 105 -1 117 -14z m-19 -538
c16 -12 18 -23 12 -110 -4 -53 -9 -101 -12 -107 -4 -5 -38 -9 -77 -9 -153 0
-358 -59 -575 -166 -192 -94 -359 -228 -508 -405 -189 -226 -289 -433 -336
-698 -11 -64 -27 -126 -35 -139 -41 -63 -163 -54 -205 15 -19 30 -21 44 -16
111 7 94 56 284 103 403 153 381 523 768 910 951 58 27 139 61 182 77 185 68
508 113 557 77z m111 -697 c410 -57 749 -365 849 -771 64 -257 36 -500 -82
-730 -137 -267 -398 -473 -678 -534 -56 -12 -123 -17 -225 -17 -123 0 -160 4
-245 26 -347 91 -631 382 -726 745 -15 54 -22 123 -26 232 -5 141 -3 165 20
266 71 312 268 552 569 693 113 53 209 80 326 91 116 11 134 11 218 -1z m1557
-1143 c80 -33 87 -88 36 -282 -64 -251 -120 -382 -241 -564 -235 -354 -657
-658 -1056 -759 -99 -26 -267 -51 -340 -51 -52 0 -53 1 -69 37 -17 41 -22 132
-11 174 7 25 12 26 125 38 379 41 683 194 971 490 186 190 361 545 396 801 9
63 38 107 78 119 48 13 74 13 111 -3z m566 -22 c28 -24 31 -31 31 -87 0 -148
-100 -520 -192 -715 -121 -255 -301 -507 -508 -711 -394 -389 -1008 -661
-1490 -661 -57 0 -61 2 -71 27 -18 45 -23 165 -7 185 10 12 42 19 128 28 240
24 468 89 695 200 258 126 414 238 613 445 93 96 146 162 226 283 190 286 264
465 331 798 33 164 38 181 66 207 25 23 38 27 88 27 49 0 65 -4 90 -26z"/>
<path d="M2780 3216 c-92 -26 -160 -83 -202 -171 -23 -50 -28 -73 -28 -140 0
-68 4 -89 29 -140 61 -128 152 -195 275 -203 132 -8 244 53 304 166 44 83 56
145 42 223 -21 116 -81 198 -182 249 -51 25 -73 30 -127 29 -36 0 -86 -6 -111
-13z m161 -228 c23 -18 46 -45 51 -60 20 -59 -47 -138 -117 -138 -44 0 -94 35
-112 78 -14 34 -14 39 3 72 22 40 77 80 110 80 12 0 42 -15 65 -32z"/>
</g>
</svg>
